<mxfile host="65bd71144e" modified="2020-11-11T04:21:53.604Z" agent="5.0 (Macintosh; Intel Mac OS X 10_15_7) AppleWebKit/537.36 (KHTML, like Gecko) Code/1.51.0 Chrome/83.0.4103.122 Electron/9.3.3 Safari/537.36" etag="RDP3aKizHwP9iKQiVm4Y" version="13.6.5" pages="13">
    <diagram id="txCa_ksUoBLOZzcTATOj" name="Page-1">
        <mxGraphModel dx="1402" dy="860" grid="1" gridSize="10" guides="1" tooltips="1" connect="1" arrows="1" fold="1" page="1" pageScale="1" pageWidth="800" pageHeight="800" math="0" shadow="0">
            <root>
                <mxCell id="0"/>
                <mxCell id="1" parent="0"/>
                <mxCell id="2" value="10" style="whiteSpace=wrap;html=1;aspect=fixed;fontFamily=Fira Code;" parent="1" vertex="1">
                    <mxGeometry x="320" y="40" width="40" height="40" as="geometry"/>
                </mxCell>
                <mxCell id="3" value="" style="whiteSpace=wrap;html=1;aspect=fixed;fontFamily=Fira Code;" parent="1" vertex="1">
                    <mxGeometry x="360" y="40" width="40" height="40" as="geometry"/>
                </mxCell>
                <mxCell id="4" value="" style="whiteSpace=wrap;html=1;aspect=fixed;fontFamily=Fira Code;" parent="1" vertex="1">
                    <mxGeometry x="400" y="40" width="40" height="40" as="geometry"/>
                </mxCell>
                <mxCell id="5" value="" style="whiteSpace=wrap;html=1;aspect=fixed;fontFamily=Fira Code;" parent="1" vertex="1">
                    <mxGeometry x="440" y="40" width="40" height="40" as="geometry"/>
                </mxCell>
            </root>
        </mxGraphModel>
    </diagram>
    <diagram name="Copy of Page-1" id="j43gCVQFJZowqEMbykZ9">
        <mxGraphModel dx="1402" dy="860" grid="1" gridSize="10" guides="1" tooltips="1" connect="1" arrows="1" fold="1" page="1" pageScale="1" pageWidth="800" pageHeight="800" math="0" shadow="0">
            <root>
                <mxCell id="CdNHfQSmdVmvH8gO9E0L-0"/>
                <mxCell id="CdNHfQSmdVmvH8gO9E0L-1" parent="CdNHfQSmdVmvH8gO9E0L-0"/>
                <mxCell id="CdNHfQSmdVmvH8gO9E0L-2" value="5" style="whiteSpace=wrap;html=1;aspect=fixed;fontFamily=Fira Code;" parent="CdNHfQSmdVmvH8gO9E0L-1" vertex="1">
                    <mxGeometry x="320" y="40" width="40" height="40" as="geometry"/>
                </mxCell>
                <mxCell id="CdNHfQSmdVmvH8gO9E0L-3" value="10" style="whiteSpace=wrap;html=1;aspect=fixed;fontFamily=Fira Code;" parent="CdNHfQSmdVmvH8gO9E0L-1" vertex="1">
                    <mxGeometry x="360" y="40" width="40" height="40" as="geometry"/>
                </mxCell>
                <mxCell id="CdNHfQSmdVmvH8gO9E0L-4" value="" style="whiteSpace=wrap;html=1;aspect=fixed;fontFamily=Fira Code;" parent="CdNHfQSmdVmvH8gO9E0L-1" vertex="1">
                    <mxGeometry x="400" y="40" width="40" height="40" as="geometry"/>
                </mxCell>
                <mxCell id="CdNHfQSmdVmvH8gO9E0L-5" value="" style="whiteSpace=wrap;html=1;aspect=fixed;fontFamily=Fira Code;" parent="CdNHfQSmdVmvH8gO9E0L-1" vertex="1">
                    <mxGeometry x="440" y="40" width="40" height="40" as="geometry"/>
                </mxCell>
            </root>
        </mxGraphModel>
    </diagram>
    <diagram name="Copy of Copy of Page-1" id="bkbzq2fccHkqix9wdO-N">
        <mxGraphModel dx="1402" dy="860" grid="1" gridSize="10" guides="1" tooltips="1" connect="1" arrows="1" fold="1" page="1" pageScale="1" pageWidth="800" pageHeight="800" math="0" shadow="0">
            <root>
                <mxCell id="YgrXGwYtX8yWzyRb2GrN-0"/>
                <mxCell id="YgrXGwYtX8yWzyRb2GrN-1" parent="YgrXGwYtX8yWzyRb2GrN-0"/>
                <mxCell id="YgrXGwYtX8yWzyRb2GrN-2" value="5" style="whiteSpace=wrap;html=1;aspect=fixed;fontFamily=Fira Code;" parent="YgrXGwYtX8yWzyRb2GrN-1" vertex="1">
                    <mxGeometry x="320" y="40" width="40" height="40" as="geometry"/>
                </mxCell>
                <mxCell id="YgrXGwYtX8yWzyRb2GrN-3" value="10" style="whiteSpace=wrap;html=1;aspect=fixed;fontFamily=Fira Code;" parent="YgrXGwYtX8yWzyRb2GrN-1" vertex="1">
                    <mxGeometry x="360" y="40" width="40" height="40" as="geometry"/>
                </mxCell>
                <mxCell id="YgrXGwYtX8yWzyRb2GrN-4" value="50" style="whiteSpace=wrap;html=1;aspect=fixed;fontFamily=Fira Code;" parent="YgrXGwYtX8yWzyRb2GrN-1" vertex="1">
                    <mxGeometry x="400" y="40" width="40" height="40" as="geometry"/>
                </mxCell>
                <mxCell id="YgrXGwYtX8yWzyRb2GrN-5" value="" style="whiteSpace=wrap;html=1;aspect=fixed;fontFamily=Fira Code;" parent="YgrXGwYtX8yWzyRb2GrN-1" vertex="1">
                    <mxGeometry x="440" y="40" width="40" height="40" as="geometry"/>
                </mxCell>
            </root>
        </mxGraphModel>
    </diagram>
    <diagram name="Copy of Copy of Copy of Page-1" id="OM_2mnmLVpxS00gPXXbf">
        <mxGraphModel dx="1402" dy="860" grid="1" gridSize="10" guides="1" tooltips="1" connect="1" arrows="1" fold="1" page="1" pageScale="1" pageWidth="800" pageHeight="800" math="0" shadow="0">
            <root>
                <mxCell id="Oke_IYp8fV7BN3NRF6Zw-0"/>
                <mxCell id="Oke_IYp8fV7BN3NRF6Zw-1" parent="Oke_IYp8fV7BN3NRF6Zw-0"/>
                <mxCell id="Oke_IYp8fV7BN3NRF6Zw-2" value="5" style="whiteSpace=wrap;html=1;aspect=fixed;fontFamily=Fira Code;" parent="Oke_IYp8fV7BN3NRF6Zw-1" vertex="1">
                    <mxGeometry x="320" y="40" width="40" height="40" as="geometry"/>
                </mxCell>
                <mxCell id="Oke_IYp8fV7BN3NRF6Zw-3" value="10" style="whiteSpace=wrap;html=1;aspect=fixed;fontFamily=Fira Code;" parent="Oke_IYp8fV7BN3NRF6Zw-1" vertex="1">
                    <mxGeometry x="360" y="40" width="40" height="40" as="geometry"/>
                </mxCell>
                <mxCell id="Oke_IYp8fV7BN3NRF6Zw-4" value="35" style="whiteSpace=wrap;html=1;aspect=fixed;fontFamily=Fira Code;" parent="Oke_IYp8fV7BN3NRF6Zw-1" vertex="1">
                    <mxGeometry x="400" y="40" width="40" height="40" as="geometry"/>
                </mxCell>
                <mxCell id="Oke_IYp8fV7BN3NRF6Zw-5" value="50" style="whiteSpace=wrap;html=1;aspect=fixed;fontFamily=Fira Code;" parent="Oke_IYp8fV7BN3NRF6Zw-1" vertex="1">
                    <mxGeometry x="440" y="40" width="40" height="40" as="geometry"/>
                </mxCell>
            </root>
        </mxGraphModel>
    </diagram>
    <diagram name="Copy of Copy of Copy of Copy of Page-1" id="oMQ7qCrSeQkmTatnW9i-">
        <mxGraphModel dx="2202" dy="860" grid="1" gridSize="10" guides="1" tooltips="1" connect="1" arrows="1" fold="1" page="1" pageScale="1" pageWidth="800" pageHeight="800" math="0" shadow="0">
            <root>
                <mxCell id="m-656Rwu_aVQNnJfaMTj-0"/>
                <mxCell id="m-656Rwu_aVQNnJfaMTj-1" parent="m-656Rwu_aVQNnJfaMTj-0"/>
                <mxCell id="m-656Rwu_aVQNnJfaMTj-10" style="rounded=0;orthogonalLoop=1;jettySize=auto;html=1;exitX=0;exitY=1;exitDx=0;exitDy=0;entryX=0;entryY=0;entryDx=0;entryDy=0;endArrow=none;endFill=0;" parent="m-656Rwu_aVQNnJfaMTj-1" source="m-656Rwu_aVQNnJfaMTj-2" target="m-656Rwu_aVQNnJfaMTj-8" edge="1">
                    <mxGeometry relative="1" as="geometry"/>
                </mxCell>
                <mxCell id="m-656Rwu_aVQNnJfaMTj-23" style="edgeStyle=none;rounded=0;orthogonalLoop=1;jettySize=auto;html=1;exitX=1;exitY=1;exitDx=0;exitDy=0;entryX=0;entryY=0;entryDx=0;entryDy=0;endArrow=none;endFill=0;" parent="m-656Rwu_aVQNnJfaMTj-1" source="m-656Rwu_aVQNnJfaMTj-2" target="m-656Rwu_aVQNnJfaMTj-13" edge="1">
                    <mxGeometry relative="1" as="geometry"/>
                </mxCell>
                <mxCell id="m-656Rwu_aVQNnJfaMTj-2" value="5" style="whiteSpace=wrap;html=1;aspect=fixed;fontFamily=Fira Code;" parent="m-656Rwu_aVQNnJfaMTj-1" vertex="1">
                    <mxGeometry x="320" y="40" width="40" height="40" as="geometry"/>
                </mxCell>
                <mxCell id="m-656Rwu_aVQNnJfaMTj-3" value="10" style="whiteSpace=wrap;html=1;aspect=fixed;fontFamily=Fira Code;" parent="m-656Rwu_aVQNnJfaMTj-1" vertex="1">
                    <mxGeometry x="360" y="40" width="40" height="40" as="geometry"/>
                </mxCell>
                <mxCell id="m-656Rwu_aVQNnJfaMTj-4" value="35" style="whiteSpace=wrap;html=1;aspect=fixed;fontFamily=Fira Code;" parent="m-656Rwu_aVQNnJfaMTj-1" vertex="1">
                    <mxGeometry x="400" y="40" width="40" height="40" as="geometry"/>
                </mxCell>
                <mxCell id="m-656Rwu_aVQNnJfaMTj-5" value="50" style="whiteSpace=wrap;html=1;aspect=fixed;fontFamily=Fira Code;" parent="m-656Rwu_aVQNnJfaMTj-1" vertex="1">
                    <mxGeometry x="440" y="40" width="40" height="40" as="geometry"/>
                </mxCell>
                <mxCell id="m-656Rwu_aVQNnJfaMTj-6" value="" style="whiteSpace=wrap;html=1;aspect=fixed;fontFamily=Fira Code;" parent="m-656Rwu_aVQNnJfaMTj-1" vertex="1">
                    <mxGeometry x="-80" y="120" width="40" height="40" as="geometry"/>
                </mxCell>
                <mxCell id="m-656Rwu_aVQNnJfaMTj-7" value="" style="whiteSpace=wrap;html=1;aspect=fixed;fontFamily=Fira Code;" parent="m-656Rwu_aVQNnJfaMTj-1" vertex="1">
                    <mxGeometry x="-40" y="120" width="40" height="40" as="geometry"/>
                </mxCell>
                <mxCell id="m-656Rwu_aVQNnJfaMTj-8" value="" style="whiteSpace=wrap;html=1;aspect=fixed;fontFamily=Fira Code;" parent="m-656Rwu_aVQNnJfaMTj-1" vertex="1">
                    <mxGeometry y="120" width="40" height="40" as="geometry"/>
                </mxCell>
                <mxCell id="m-656Rwu_aVQNnJfaMTj-9" value="" style="whiteSpace=wrap;html=1;aspect=fixed;fontFamily=Fira Code;" parent="m-656Rwu_aVQNnJfaMTj-1" vertex="1">
                    <mxGeometry x="40" y="120" width="40" height="40" as="geometry"/>
                </mxCell>
                <mxCell id="m-656Rwu_aVQNnJfaMTj-11" value="" style="whiteSpace=wrap;html=1;aspect=fixed;fontFamily=Fira Code;" parent="m-656Rwu_aVQNnJfaMTj-1" vertex="1">
                    <mxGeometry x="120" y="120" width="40" height="40" as="geometry"/>
                </mxCell>
                <mxCell id="m-656Rwu_aVQNnJfaMTj-12" value="" style="whiteSpace=wrap;html=1;aspect=fixed;fontFamily=Fira Code;" parent="m-656Rwu_aVQNnJfaMTj-1" vertex="1">
                    <mxGeometry x="160" y="120" width="40" height="40" as="geometry"/>
                </mxCell>
                <mxCell id="m-656Rwu_aVQNnJfaMTj-13" value="" style="whiteSpace=wrap;html=1;aspect=fixed;fontFamily=Fira Code;" parent="m-656Rwu_aVQNnJfaMTj-1" vertex="1">
                    <mxGeometry x="200" y="120" width="40" height="40" as="geometry"/>
                </mxCell>
                <mxCell id="m-656Rwu_aVQNnJfaMTj-14" value="" style="whiteSpace=wrap;html=1;aspect=fixed;fontFamily=Fira Code;" parent="m-656Rwu_aVQNnJfaMTj-1" vertex="1">
                    <mxGeometry x="240" y="120" width="40" height="40" as="geometry"/>
                </mxCell>
            </root>
        </mxGraphModel>
    </diagram>
    <diagram name="Copy of Copy of Copy of Copy of Copy of Page-1" id="wRpoYj4uNqJwpFkkoW-z">
        <mxGraphModel dx="2202" dy="860" grid="1" gridSize="10" guides="1" tooltips="1" connect="1" arrows="1" fold="1" page="1" pageScale="1" pageWidth="800" pageHeight="800" math="0" shadow="0">
            <root>
                <mxCell id="Ei1mm7T92RGMsPTPNJHA-0"/>
                <mxCell id="Ei1mm7T92RGMsPTPNJHA-1" parent="Ei1mm7T92RGMsPTPNJHA-0"/>
                <mxCell id="Ei1mm7T92RGMsPTPNJHA-2" style="rounded=0;orthogonalLoop=1;jettySize=auto;html=1;exitX=0;exitY=1;exitDx=0;exitDy=0;entryX=0;entryY=0;entryDx=0;entryDy=0;endArrow=none;endFill=0;" parent="Ei1mm7T92RGMsPTPNJHA-1" source="Ei1mm7T92RGMsPTPNJHA-4" target="Ei1mm7T92RGMsPTPNJHA-10" edge="1">
                    <mxGeometry relative="1" as="geometry"/>
                </mxCell>
                <mxCell id="Ei1mm7T92RGMsPTPNJHA-3" style="edgeStyle=none;rounded=0;orthogonalLoop=1;jettySize=auto;html=1;exitX=1;exitY=1;exitDx=0;exitDy=0;entryX=0;entryY=0;entryDx=0;entryDy=0;endArrow=none;endFill=0;" parent="Ei1mm7T92RGMsPTPNJHA-1" source="Ei1mm7T92RGMsPTPNJHA-4" target="Ei1mm7T92RGMsPTPNJHA-14" edge="1">
                    <mxGeometry relative="1" as="geometry"/>
                </mxCell>
                <mxCell id="Ei1mm7T92RGMsPTPNJHA-4" value="10" style="whiteSpace=wrap;html=1;aspect=fixed;fontFamily=Fira Code;" parent="Ei1mm7T92RGMsPTPNJHA-1" vertex="1">
                    <mxGeometry x="320" y="40" width="40" height="40" as="geometry"/>
                </mxCell>
                <mxCell id="Ei1mm7T92RGMsPTPNJHA-5" value="35" style="whiteSpace=wrap;html=1;aspect=fixed;fontFamily=Fira Code;" parent="Ei1mm7T92RGMsPTPNJHA-1" vertex="1">
                    <mxGeometry x="360" y="40" width="40" height="40" as="geometry"/>
                </mxCell>
                <mxCell id="Ei1mm7T92RGMsPTPNJHA-6" value="50" style="whiteSpace=wrap;html=1;aspect=fixed;fontFamily=Fira Code;" parent="Ei1mm7T92RGMsPTPNJHA-1" vertex="1">
                    <mxGeometry x="400" y="40" width="40" height="40" as="geometry"/>
                </mxCell>
                <mxCell id="Ei1mm7T92RGMsPTPNJHA-7" value="" style="whiteSpace=wrap;html=1;aspect=fixed;fontFamily=Fira Code;" parent="Ei1mm7T92RGMsPTPNJHA-1" vertex="1">
                    <mxGeometry x="440" y="40" width="40" height="40" as="geometry"/>
                </mxCell>
                <mxCell id="Ei1mm7T92RGMsPTPNJHA-8" value="5" style="whiteSpace=wrap;html=1;aspect=fixed;fontFamily=Fira Code;" parent="Ei1mm7T92RGMsPTPNJHA-1" vertex="1">
                    <mxGeometry x="-80" y="120" width="40" height="40" as="geometry"/>
                </mxCell>
                <mxCell id="Ei1mm7T92RGMsPTPNJHA-9" value="" style="whiteSpace=wrap;html=1;aspect=fixed;fontFamily=Fira Code;" parent="Ei1mm7T92RGMsPTPNJHA-1" vertex="1">
                    <mxGeometry x="-40" y="120" width="40" height="40" as="geometry"/>
                </mxCell>
                <mxCell id="Ei1mm7T92RGMsPTPNJHA-10" value="" style="whiteSpace=wrap;html=1;aspect=fixed;fontFamily=Fira Code;" parent="Ei1mm7T92RGMsPTPNJHA-1" vertex="1">
                    <mxGeometry y="120" width="40" height="40" as="geometry"/>
                </mxCell>
                <mxCell id="Ei1mm7T92RGMsPTPNJHA-11" value="" style="whiteSpace=wrap;html=1;aspect=fixed;fontFamily=Fira Code;" parent="Ei1mm7T92RGMsPTPNJHA-1" vertex="1">
                    <mxGeometry x="40" y="120" width="40" height="40" as="geometry"/>
                </mxCell>
                <mxCell id="Ei1mm7T92RGMsPTPNJHA-12" value="" style="whiteSpace=wrap;html=1;aspect=fixed;fontFamily=Fira Code;" parent="Ei1mm7T92RGMsPTPNJHA-1" vertex="1">
                    <mxGeometry x="120" y="120" width="40" height="40" as="geometry"/>
                </mxCell>
                <mxCell id="Ei1mm7T92RGMsPTPNJHA-13" value="" style="whiteSpace=wrap;html=1;aspect=fixed;fontFamily=Fira Code;" parent="Ei1mm7T92RGMsPTPNJHA-1" vertex="1">
                    <mxGeometry x="160" y="120" width="40" height="40" as="geometry"/>
                </mxCell>
                <mxCell id="Ei1mm7T92RGMsPTPNJHA-14" value="" style="whiteSpace=wrap;html=1;aspect=fixed;fontFamily=Fira Code;" parent="Ei1mm7T92RGMsPTPNJHA-1" vertex="1">
                    <mxGeometry x="200" y="120" width="40" height="40" as="geometry"/>
                </mxCell>
                <mxCell id="Ei1mm7T92RGMsPTPNJHA-15" value="" style="whiteSpace=wrap;html=1;aspect=fixed;fontFamily=Fira Code;" parent="Ei1mm7T92RGMsPTPNJHA-1" vertex="1">
                    <mxGeometry x="240" y="120" width="40" height="40" as="geometry"/>
                </mxCell>
            </root>
        </mxGraphModel>
    </diagram>
    <diagram name="Copy of Copy of Copy of Copy of Copy of Copy of Page-1" id="if2rdYqqfhByfQ3we5X9">
        <mxGraphModel dx="2202" dy="860" grid="1" gridSize="10" guides="1" tooltips="1" connect="1" arrows="1" fold="1" page="1" pageScale="1" pageWidth="800" pageHeight="800" math="0" shadow="0">
            <root>
                <mxCell id="juQnPKgSrwFAO0Nfcs-d-0"/>
                <mxCell id="juQnPKgSrwFAO0Nfcs-d-1" parent="juQnPKgSrwFAO0Nfcs-d-0"/>
                <mxCell id="juQnPKgSrwFAO0Nfcs-d-2" style="rounded=0;orthogonalLoop=1;jettySize=auto;html=1;exitX=0;exitY=1;exitDx=0;exitDy=0;entryX=0;entryY=0;entryDx=0;entryDy=0;endArrow=none;endFill=0;" parent="juQnPKgSrwFAO0Nfcs-d-1" source="juQnPKgSrwFAO0Nfcs-d-4" target="juQnPKgSrwFAO0Nfcs-d-10" edge="1">
                    <mxGeometry relative="1" as="geometry"/>
                </mxCell>
                <mxCell id="juQnPKgSrwFAO0Nfcs-d-3" style="edgeStyle=none;rounded=0;orthogonalLoop=1;jettySize=auto;html=1;exitX=1;exitY=1;exitDx=0;exitDy=0;entryX=0;entryY=0;entryDx=0;entryDy=0;endArrow=none;endFill=0;" parent="juQnPKgSrwFAO0Nfcs-d-1" source="juQnPKgSrwFAO0Nfcs-d-4" target="juQnPKgSrwFAO0Nfcs-d-14" edge="1">
                    <mxGeometry relative="1" as="geometry"/>
                </mxCell>
                <mxCell id="juQnPKgSrwFAO0Nfcs-d-4" value="35" style="whiteSpace=wrap;html=1;aspect=fixed;fontFamily=Fira Code;" parent="juQnPKgSrwFAO0Nfcs-d-1" vertex="1">
                    <mxGeometry x="320" y="40" width="40" height="40" as="geometry"/>
                </mxCell>
                <mxCell id="juQnPKgSrwFAO0Nfcs-d-5" value="50" style="whiteSpace=wrap;html=1;aspect=fixed;fontFamily=Fira Code;" parent="juQnPKgSrwFAO0Nfcs-d-1" vertex="1">
                    <mxGeometry x="360" y="40" width="40" height="40" as="geometry"/>
                </mxCell>
                <mxCell id="juQnPKgSrwFAO0Nfcs-d-6" value="" style="whiteSpace=wrap;html=1;aspect=fixed;fontFamily=Fira Code;" parent="juQnPKgSrwFAO0Nfcs-d-1" vertex="1">
                    <mxGeometry x="400" y="40" width="40" height="40" as="geometry"/>
                </mxCell>
                <mxCell id="juQnPKgSrwFAO0Nfcs-d-7" value="" style="whiteSpace=wrap;html=1;aspect=fixed;fontFamily=Fira Code;" parent="juQnPKgSrwFAO0Nfcs-d-1" vertex="1">
                    <mxGeometry x="440" y="40" width="40" height="40" as="geometry"/>
                </mxCell>
                <mxCell id="juQnPKgSrwFAO0Nfcs-d-8" value="5" style="whiteSpace=wrap;html=1;aspect=fixed;fontFamily=Fira Code;" parent="juQnPKgSrwFAO0Nfcs-d-1" vertex="1">
                    <mxGeometry x="-80" y="120" width="40" height="40" as="geometry"/>
                </mxCell>
                <mxCell id="juQnPKgSrwFAO0Nfcs-d-9" value="10" style="whiteSpace=wrap;html=1;aspect=fixed;fontFamily=Fira Code;" parent="juQnPKgSrwFAO0Nfcs-d-1" vertex="1">
                    <mxGeometry x="-40" y="120" width="40" height="40" as="geometry"/>
                </mxCell>
                <mxCell id="juQnPKgSrwFAO0Nfcs-d-10" value="" style="whiteSpace=wrap;html=1;aspect=fixed;fontFamily=Fira Code;" parent="juQnPKgSrwFAO0Nfcs-d-1" vertex="1">
                    <mxGeometry y="120" width="40" height="40" as="geometry"/>
                </mxCell>
                <mxCell id="juQnPKgSrwFAO0Nfcs-d-11" value="" style="whiteSpace=wrap;html=1;aspect=fixed;fontFamily=Fira Code;" parent="juQnPKgSrwFAO0Nfcs-d-1" vertex="1">
                    <mxGeometry x="40" y="120" width="40" height="40" as="geometry"/>
                </mxCell>
                <mxCell id="juQnPKgSrwFAO0Nfcs-d-12" value="" style="whiteSpace=wrap;html=1;aspect=fixed;fontFamily=Fira Code;" parent="juQnPKgSrwFAO0Nfcs-d-1" vertex="1">
                    <mxGeometry x="120" y="120" width="40" height="40" as="geometry"/>
                </mxCell>
                <mxCell id="juQnPKgSrwFAO0Nfcs-d-13" value="" style="whiteSpace=wrap;html=1;aspect=fixed;fontFamily=Fira Code;" parent="juQnPKgSrwFAO0Nfcs-d-1" vertex="1">
                    <mxGeometry x="160" y="120" width="40" height="40" as="geometry"/>
                </mxCell>
                <mxCell id="juQnPKgSrwFAO0Nfcs-d-14" value="" style="whiteSpace=wrap;html=1;aspect=fixed;fontFamily=Fira Code;" parent="juQnPKgSrwFAO0Nfcs-d-1" vertex="1">
                    <mxGeometry x="200" y="120" width="40" height="40" as="geometry"/>
                </mxCell>
                <mxCell id="juQnPKgSrwFAO0Nfcs-d-15" value="" style="whiteSpace=wrap;html=1;aspect=fixed;fontFamily=Fira Code;" parent="juQnPKgSrwFAO0Nfcs-d-1" vertex="1">
                    <mxGeometry x="240" y="120" width="40" height="40" as="geometry"/>
                </mxCell>
            </root>
        </mxGraphModel>
    </diagram>
    <diagram name="Copy of Copy of Copy of Copy of Copy of Copy of Copy of Page-1" id="DPHfiXVIDVg-sixH7_Sv">
        <mxGraphModel dx="2202" dy="860" grid="1" gridSize="10" guides="1" tooltips="1" connect="1" arrows="1" fold="1" page="1" pageScale="1" pageWidth="800" pageHeight="800" math="0" shadow="0">
            <root>
                <mxCell id="pfj3oF8QVULzts0DKrBN-0"/>
                <mxCell id="pfj3oF8QVULzts0DKrBN-1" parent="pfj3oF8QVULzts0DKrBN-0"/>
                <mxCell id="pfj3oF8QVULzts0DKrBN-2" style="rounded=0;orthogonalLoop=1;jettySize=auto;html=1;exitX=0;exitY=1;exitDx=0;exitDy=0;entryX=0;entryY=0;entryDx=0;entryDy=0;endArrow=none;endFill=0;" parent="pfj3oF8QVULzts0DKrBN-1" source="pfj3oF8QVULzts0DKrBN-4" target="pfj3oF8QVULzts0DKrBN-10" edge="1">
                    <mxGeometry relative="1" as="geometry"/>
                </mxCell>
                <mxCell id="pfj3oF8QVULzts0DKrBN-3" style="edgeStyle=none;rounded=0;orthogonalLoop=1;jettySize=auto;html=1;exitX=1;exitY=1;exitDx=0;exitDy=0;entryX=0;entryY=0;entryDx=0;entryDy=0;endArrow=none;endFill=0;" parent="pfj3oF8QVULzts0DKrBN-1" source="pfj3oF8QVULzts0DKrBN-4" target="pfj3oF8QVULzts0DKrBN-14" edge="1">
                    <mxGeometry relative="1" as="geometry"/>
                </mxCell>
                <mxCell id="pfj3oF8QVULzts0DKrBN-4" value="35" style="whiteSpace=wrap;html=1;aspect=fixed;fontFamily=Fira Code;" parent="pfj3oF8QVULzts0DKrBN-1" vertex="1">
                    <mxGeometry x="320" y="40" width="40" height="40" as="geometry"/>
                </mxCell>
                <mxCell id="pfj3oF8QVULzts0DKrBN-5" value="50" style="whiteSpace=wrap;html=1;aspect=fixed;fontFamily=Fira Code;" parent="pfj3oF8QVULzts0DKrBN-1" vertex="1">
                    <mxGeometry x="360" y="40" width="40" height="40" as="geometry"/>
                </mxCell>
                <mxCell id="pfj3oF8QVULzts0DKrBN-6" value="" style="whiteSpace=wrap;html=1;aspect=fixed;fontFamily=Fira Code;" parent="pfj3oF8QVULzts0DKrBN-1" vertex="1">
                    <mxGeometry x="400" y="40" width="40" height="40" as="geometry"/>
                </mxCell>
                <mxCell id="pfj3oF8QVULzts0DKrBN-7" value="" style="whiteSpace=wrap;html=1;aspect=fixed;fontFamily=Fira Code;" parent="pfj3oF8QVULzts0DKrBN-1" vertex="1">
                    <mxGeometry x="440" y="40" width="40" height="40" as="geometry"/>
                </mxCell>
                <mxCell id="pfj3oF8QVULzts0DKrBN-8" value="5" style="whiteSpace=wrap;html=1;aspect=fixed;fontFamily=Fira Code;" parent="pfj3oF8QVULzts0DKrBN-1" vertex="1">
                    <mxGeometry x="-80" y="120" width="40" height="40" as="geometry"/>
                </mxCell>
                <mxCell id="pfj3oF8QVULzts0DKrBN-9" value="10" style="whiteSpace=wrap;html=1;aspect=fixed;fontFamily=Fira Code;" parent="pfj3oF8QVULzts0DKrBN-1" vertex="1">
                    <mxGeometry x="-40" y="120" width="40" height="40" as="geometry"/>
                </mxCell>
                <mxCell id="pfj3oF8QVULzts0DKrBN-10" value="" style="whiteSpace=wrap;html=1;aspect=fixed;fontFamily=Fira Code;" parent="pfj3oF8QVULzts0DKrBN-1" vertex="1">
                    <mxGeometry y="120" width="40" height="40" as="geometry"/>
                </mxCell>
                <mxCell id="pfj3oF8QVULzts0DKrBN-11" value="" style="whiteSpace=wrap;html=1;aspect=fixed;fontFamily=Fira Code;" parent="pfj3oF8QVULzts0DKrBN-1" vertex="1">
                    <mxGeometry x="40" y="120" width="40" height="40" as="geometry"/>
                </mxCell>
                <mxCell id="pfj3oF8QVULzts0DKrBN-12" value="40" style="whiteSpace=wrap;html=1;aspect=fixed;fontFamily=Fira Code;" parent="pfj3oF8QVULzts0DKrBN-1" vertex="1">
                    <mxGeometry x="120" y="120" width="40" height="40" as="geometry"/>
                </mxCell>
                <mxCell id="pfj3oF8QVULzts0DKrBN-13" value="" style="whiteSpace=wrap;html=1;aspect=fixed;fontFamily=Fira Code;" parent="pfj3oF8QVULzts0DKrBN-1" vertex="1">
                    <mxGeometry x="160" y="120" width="40" height="40" as="geometry"/>
                </mxCell>
                <mxCell id="pfj3oF8QVULzts0DKrBN-14" value="" style="whiteSpace=wrap;html=1;aspect=fixed;fontFamily=Fira Code;" parent="pfj3oF8QVULzts0DKrBN-1" vertex="1">
                    <mxGeometry x="200" y="120" width="40" height="40" as="geometry"/>
                </mxCell>
                <mxCell id="pfj3oF8QVULzts0DKrBN-15" value="" style="whiteSpace=wrap;html=1;aspect=fixed;fontFamily=Fira Code;" parent="pfj3oF8QVULzts0DKrBN-1" vertex="1">
                    <mxGeometry x="240" y="120" width="40" height="40" as="geometry"/>
                </mxCell>
            </root>
        </mxGraphModel>
    </diagram>
    <diagram name="Copy of Copy of Copy of Copy of Copy of Copy of Copy of Copy of Page-1" id="bGiO1yFPhPAGwqqpGnuw">
        <mxGraphModel dx="2202" dy="860" grid="1" gridSize="10" guides="1" tooltips="1" connect="1" arrows="1" fold="1" page="1" pageScale="1" pageWidth="800" pageHeight="800" math="0" shadow="0">
            <root>
                <mxCell id="H009oNKKuR3dY9u0lWmf-0"/>
                <mxCell id="H009oNKKuR3dY9u0lWmf-1" parent="H009oNKKuR3dY9u0lWmf-0"/>
                <mxCell id="H009oNKKuR3dY9u0lWmf-2" style="rounded=0;orthogonalLoop=1;jettySize=auto;html=1;exitX=0;exitY=1;exitDx=0;exitDy=0;entryX=0;entryY=0;entryDx=0;entryDy=0;endArrow=none;endFill=0;" parent="H009oNKKuR3dY9u0lWmf-1" source="H009oNKKuR3dY9u0lWmf-4" target="H009oNKKuR3dY9u0lWmf-10" edge="1">
                    <mxGeometry relative="1" as="geometry"/>
                </mxCell>
                <mxCell id="H009oNKKuR3dY9u0lWmf-3" style="edgeStyle=none;rounded=0;orthogonalLoop=1;jettySize=auto;html=1;exitX=1;exitY=1;exitDx=0;exitDy=0;entryX=0;entryY=0;entryDx=0;entryDy=0;endArrow=none;endFill=0;" parent="H009oNKKuR3dY9u0lWmf-1" source="H009oNKKuR3dY9u0lWmf-4" target="H009oNKKuR3dY9u0lWmf-14" edge="1">
                    <mxGeometry relative="1" as="geometry"/>
                </mxCell>
                <mxCell id="H009oNKKuR3dY9u0lWmf-4" value="35" style="whiteSpace=wrap;html=1;aspect=fixed;fontFamily=Fira Code;" parent="H009oNKKuR3dY9u0lWmf-1" vertex="1">
                    <mxGeometry x="320" y="40" width="40" height="40" as="geometry"/>
                </mxCell>
                <mxCell id="H009oNKKuR3dY9u0lWmf-5" value="" style="whiteSpace=wrap;html=1;aspect=fixed;fontFamily=Fira Code;" parent="H009oNKKuR3dY9u0lWmf-1" vertex="1">
                    <mxGeometry x="360" y="40" width="40" height="40" as="geometry"/>
                </mxCell>
                <mxCell id="H009oNKKuR3dY9u0lWmf-6" value="" style="whiteSpace=wrap;html=1;aspect=fixed;fontFamily=Fira Code;" parent="H009oNKKuR3dY9u0lWmf-1" vertex="1">
                    <mxGeometry x="400" y="40" width="40" height="40" as="geometry"/>
                </mxCell>
                <mxCell id="H009oNKKuR3dY9u0lWmf-7" value="" style="whiteSpace=wrap;html=1;aspect=fixed;fontFamily=Fira Code;" parent="H009oNKKuR3dY9u0lWmf-1" vertex="1">
                    <mxGeometry x="440" y="40" width="40" height="40" as="geometry"/>
                </mxCell>
                <mxCell id="H009oNKKuR3dY9u0lWmf-8" value="5" style="whiteSpace=wrap;html=1;aspect=fixed;fontFamily=Fira Code;" parent="H009oNKKuR3dY9u0lWmf-1" vertex="1">
                    <mxGeometry x="-80" y="120" width="40" height="40" as="geometry"/>
                </mxCell>
                <mxCell id="H009oNKKuR3dY9u0lWmf-9" value="10" style="whiteSpace=wrap;html=1;aspect=fixed;fontFamily=Fira Code;" parent="H009oNKKuR3dY9u0lWmf-1" vertex="1">
                    <mxGeometry x="-40" y="120" width="40" height="40" as="geometry"/>
                </mxCell>
                <mxCell id="H009oNKKuR3dY9u0lWmf-10" value="" style="whiteSpace=wrap;html=1;aspect=fixed;fontFamily=Fira Code;" parent="H009oNKKuR3dY9u0lWmf-1" vertex="1">
                    <mxGeometry y="120" width="40" height="40" as="geometry"/>
                </mxCell>
                <mxCell id="H009oNKKuR3dY9u0lWmf-11" value="" style="whiteSpace=wrap;html=1;aspect=fixed;fontFamily=Fira Code;" parent="H009oNKKuR3dY9u0lWmf-1" vertex="1">
                    <mxGeometry x="40" y="120" width="40" height="40" as="geometry"/>
                </mxCell>
                <mxCell id="H009oNKKuR3dY9u0lWmf-12" value="40" style="whiteSpace=wrap;html=1;aspect=fixed;fontFamily=Fira Code;" parent="H009oNKKuR3dY9u0lWmf-1" vertex="1">
                    <mxGeometry x="120" y="120" width="40" height="40" as="geometry"/>
                </mxCell>
                <mxCell id="H009oNKKuR3dY9u0lWmf-13" value="50" style="whiteSpace=wrap;html=1;aspect=fixed;fontFamily=Fira Code;" parent="H009oNKKuR3dY9u0lWmf-1" vertex="1">
                    <mxGeometry x="160" y="120" width="40" height="40" as="geometry"/>
                </mxCell>
                <mxCell id="H009oNKKuR3dY9u0lWmf-14" value="" style="whiteSpace=wrap;html=1;aspect=fixed;fontFamily=Fira Code;" parent="H009oNKKuR3dY9u0lWmf-1" vertex="1">
                    <mxGeometry x="200" y="120" width="40" height="40" as="geometry"/>
                </mxCell>
                <mxCell id="H009oNKKuR3dY9u0lWmf-15" value="" style="whiteSpace=wrap;html=1;aspect=fixed;fontFamily=Fira Code;" parent="H009oNKKuR3dY9u0lWmf-1" vertex="1">
                    <mxGeometry x="240" y="120" width="40" height="40" as="geometry"/>
                </mxCell>
            </root>
        </mxGraphModel>
    </diagram>
    <diagram name="Copy of Copy of Copy of Copy of Copy of Copy of Copy of Copy of Copy of Page-1" id="n0LEhI8f_1x8CGb_Qpmm">
        <mxGraphModel dx="2202" dy="860" grid="1" gridSize="10" guides="1" tooltips="1" connect="1" arrows="1" fold="1" page="1" pageScale="1" pageWidth="800" pageHeight="800" math="0" shadow="0">
            <root>
                <mxCell id="Q-qBWn2aIrunrMLGc1W4-0"/>
                <mxCell id="Q-qBWn2aIrunrMLGc1W4-1" parent="Q-qBWn2aIrunrMLGc1W4-0"/>
                <mxCell id="Q-qBWn2aIrunrMLGc1W4-2" style="rounded=0;orthogonalLoop=1;jettySize=auto;html=1;exitX=0;exitY=1;exitDx=0;exitDy=0;entryX=0;entryY=0;entryDx=0;entryDy=0;endArrow=none;endFill=0;" parent="Q-qBWn2aIrunrMLGc1W4-1" source="Q-qBWn2aIrunrMLGc1W4-4" target="Q-qBWn2aIrunrMLGc1W4-10" edge="1">
                    <mxGeometry relative="1" as="geometry"/>
                </mxCell>
                <mxCell id="Q-qBWn2aIrunrMLGc1W4-3" style="edgeStyle=none;rounded=0;orthogonalLoop=1;jettySize=auto;html=1;exitX=1;exitY=1;exitDx=0;exitDy=0;entryX=0;entryY=0;entryDx=0;entryDy=0;endArrow=none;endFill=0;" parent="Q-qBWn2aIrunrMLGc1W4-1" source="Q-qBWn2aIrunrMLGc1W4-4" target="Q-qBWn2aIrunrMLGc1W4-14" edge="1">
                    <mxGeometry relative="1" as="geometry"/>
                </mxCell>
                <mxCell id="Q-qBWn2aIrunrMLGc1W4-4" value="35" style="whiteSpace=wrap;html=1;aspect=fixed;fontFamily=Fira Code;" parent="Q-qBWn2aIrunrMLGc1W4-1" vertex="1">
                    <mxGeometry x="320" y="40" width="40" height="40" as="geometry"/>
                </mxCell>
                <mxCell id="Q-qBWn2aIrunrMLGc1W4-5" value="" style="whiteSpace=wrap;html=1;aspect=fixed;fontFamily=Fira Code;" parent="Q-qBWn2aIrunrMLGc1W4-1" vertex="1">
                    <mxGeometry x="360" y="40" width="40" height="40" as="geometry"/>
                </mxCell>
                <mxCell id="Q-qBWn2aIrunrMLGc1W4-6" value="" style="whiteSpace=wrap;html=1;aspect=fixed;fontFamily=Fira Code;" parent="Q-qBWn2aIrunrMLGc1W4-1" vertex="1">
                    <mxGeometry x="400" y="40" width="40" height="40" as="geometry"/>
                </mxCell>
                <mxCell id="Q-qBWn2aIrunrMLGc1W4-7" value="" style="whiteSpace=wrap;html=1;aspect=fixed;fontFamily=Fira Code;" parent="Q-qBWn2aIrunrMLGc1W4-1" vertex="1">
                    <mxGeometry x="440" y="40" width="40" height="40" as="geometry"/>
                </mxCell>
                <mxCell id="Q-qBWn2aIrunrMLGc1W4-8" value="5" style="whiteSpace=wrap;html=1;aspect=fixed;fontFamily=Fira Code;" parent="Q-qBWn2aIrunrMLGc1W4-1" vertex="1">
                    <mxGeometry x="-80" y="120" width="40" height="40" as="geometry"/>
                </mxCell>
                <mxCell id="Q-qBWn2aIrunrMLGc1W4-9" value="10" style="whiteSpace=wrap;html=1;aspect=fixed;fontFamily=Fira Code;" parent="Q-qBWn2aIrunrMLGc1W4-1" vertex="1">
                    <mxGeometry x="-40" y="120" width="40" height="40" as="geometry"/>
                </mxCell>
                <mxCell id="Q-qBWn2aIrunrMLGc1W4-10" value="15" style="whiteSpace=wrap;html=1;aspect=fixed;fontFamily=Fira Code;" parent="Q-qBWn2aIrunrMLGc1W4-1" vertex="1">
                    <mxGeometry y="120" width="40" height="40" as="geometry"/>
                </mxCell>
                <mxCell id="Q-qBWn2aIrunrMLGc1W4-11" value="" style="whiteSpace=wrap;html=1;aspect=fixed;fontFamily=Fira Code;" parent="Q-qBWn2aIrunrMLGc1W4-1" vertex="1">
                    <mxGeometry x="40" y="120" width="40" height="40" as="geometry"/>
                </mxCell>
                <mxCell id="Q-qBWn2aIrunrMLGc1W4-12" value="40" style="whiteSpace=wrap;html=1;aspect=fixed;fontFamily=Fira Code;" parent="Q-qBWn2aIrunrMLGc1W4-1" vertex="1">
                    <mxGeometry x="120" y="120" width="40" height="40" as="geometry"/>
                </mxCell>
                <mxCell id="Q-qBWn2aIrunrMLGc1W4-13" value="50" style="whiteSpace=wrap;html=1;aspect=fixed;fontFamily=Fira Code;" parent="Q-qBWn2aIrunrMLGc1W4-1" vertex="1">
                    <mxGeometry x="160" y="120" width="40" height="40" as="geometry"/>
                </mxCell>
                <mxCell id="Q-qBWn2aIrunrMLGc1W4-14" value="" style="whiteSpace=wrap;html=1;aspect=fixed;fontFamily=Fira Code;" parent="Q-qBWn2aIrunrMLGc1W4-1" vertex="1">
                    <mxGeometry x="200" y="120" width="40" height="40" as="geometry"/>
                </mxCell>
                <mxCell id="Q-qBWn2aIrunrMLGc1W4-15" value="" style="whiteSpace=wrap;html=1;aspect=fixed;fontFamily=Fira Code;" parent="Q-qBWn2aIrunrMLGc1W4-1" vertex="1">
                    <mxGeometry x="240" y="120" width="40" height="40" as="geometry"/>
                </mxCell>
            </root>
        </mxGraphModel>
    </diagram>
    <diagram name="Copy of Copy of Copy of Copy of Copy of Copy of Copy of Copy of Copy of Copy of Page-1" id="G9XtnAHWkDvycJu_Xo2b">
        <mxGraphModel dx="2202" dy="860" grid="1" gridSize="10" guides="1" tooltips="1" connect="1" arrows="1" fold="1" page="1" pageScale="1" pageWidth="800" pageHeight="800" math="0" shadow="0">
            <root>
                <mxCell id="0VkmQVjvzOjDvfpLvTd2-0"/>
                <mxCell id="0VkmQVjvzOjDvfpLvTd2-1" parent="0VkmQVjvzOjDvfpLvTd2-0"/>
                <mxCell id="0VkmQVjvzOjDvfpLvTd2-2" style="rounded=0;orthogonalLoop=1;jettySize=auto;html=1;exitX=0;exitY=1;exitDx=0;exitDy=0;entryX=0;entryY=0;entryDx=0;entryDy=0;endArrow=none;endFill=0;" parent="0VkmQVjvzOjDvfpLvTd2-1" source="0VkmQVjvzOjDvfpLvTd2-4" target="0VkmQVjvzOjDvfpLvTd2-10" edge="1">
                    <mxGeometry relative="1" as="geometry"/>
                </mxCell>
                <mxCell id="0VkmQVjvzOjDvfpLvTd2-3" style="edgeStyle=none;rounded=0;orthogonalLoop=1;jettySize=auto;html=1;exitX=1;exitY=1;exitDx=0;exitDy=0;entryX=0;entryY=0;entryDx=0;entryDy=0;endArrow=none;endFill=0;" parent="0VkmQVjvzOjDvfpLvTd2-1" source="0VkmQVjvzOjDvfpLvTd2-4" target="0VkmQVjvzOjDvfpLvTd2-14" edge="1">
                    <mxGeometry relative="1" as="geometry"/>
                </mxCell>
                <mxCell id="0VkmQVjvzOjDvfpLvTd2-4" value="35" style="whiteSpace=wrap;html=1;aspect=fixed;fontFamily=Fira Code;" parent="0VkmQVjvzOjDvfpLvTd2-1" vertex="1">
                    <mxGeometry x="320" y="40" width="40" height="40" as="geometry"/>
                </mxCell>
                <mxCell id="0VkmQVjvzOjDvfpLvTd2-5" value="" style="whiteSpace=wrap;html=1;aspect=fixed;fontFamily=Fira Code;" parent="0VkmQVjvzOjDvfpLvTd2-1" vertex="1">
                    <mxGeometry x="360" y="40" width="40" height="40" as="geometry"/>
                </mxCell>
                <mxCell id="0VkmQVjvzOjDvfpLvTd2-6" value="" style="whiteSpace=wrap;html=1;aspect=fixed;fontFamily=Fira Code;" parent="0VkmQVjvzOjDvfpLvTd2-1" vertex="1">
                    <mxGeometry x="400" y="40" width="40" height="40" as="geometry"/>
                </mxCell>
                <mxCell id="0VkmQVjvzOjDvfpLvTd2-7" value="" style="whiteSpace=wrap;html=1;aspect=fixed;fontFamily=Fira Code;" parent="0VkmQVjvzOjDvfpLvTd2-1" vertex="1">
                    <mxGeometry x="440" y="40" width="40" height="40" as="geometry"/>
                </mxCell>
                <mxCell id="0VkmQVjvzOjDvfpLvTd2-8" value="5" style="whiteSpace=wrap;html=1;aspect=fixed;fontFamily=Fira Code;" parent="0VkmQVjvzOjDvfpLvTd2-1" vertex="1">
                    <mxGeometry x="-80" y="120" width="40" height="40" as="geometry"/>
                </mxCell>
                <mxCell id="0VkmQVjvzOjDvfpLvTd2-9" value="10" style="whiteSpace=wrap;html=1;aspect=fixed;fontFamily=Fira Code;" parent="0VkmQVjvzOjDvfpLvTd2-1" vertex="1">
                    <mxGeometry x="-40" y="120" width="40" height="40" as="geometry"/>
                </mxCell>
                <mxCell id="0VkmQVjvzOjDvfpLvTd2-10" value="15" style="whiteSpace=wrap;html=1;aspect=fixed;fontFamily=Fira Code;" parent="0VkmQVjvzOjDvfpLvTd2-1" vertex="1">
                    <mxGeometry y="120" width="40" height="40" as="geometry"/>
                </mxCell>
                <mxCell id="0VkmQVjvzOjDvfpLvTd2-11" value="" style="whiteSpace=wrap;html=1;aspect=fixed;fontFamily=Fira Code;" parent="0VkmQVjvzOjDvfpLvTd2-1" vertex="1">
                    <mxGeometry x="40" y="120" width="40" height="40" as="geometry"/>
                </mxCell>
                <mxCell id="0VkmQVjvzOjDvfpLvTd2-12" value="40" style="whiteSpace=wrap;html=1;aspect=fixed;fontFamily=Fira Code;" parent="0VkmQVjvzOjDvfpLvTd2-1" vertex="1">
                    <mxGeometry x="120" y="120" width="40" height="40" as="geometry"/>
                </mxCell>
                <mxCell id="0VkmQVjvzOjDvfpLvTd2-13" value="50" style="whiteSpace=wrap;html=1;aspect=fixed;fontFamily=Fira Code;" parent="0VkmQVjvzOjDvfpLvTd2-1" vertex="1">
                    <mxGeometry x="160" y="120" width="40" height="40" as="geometry"/>
                </mxCell>
                <mxCell id="0VkmQVjvzOjDvfpLvTd2-14" value="95" style="whiteSpace=wrap;html=1;aspect=fixed;fontFamily=Fira Code;" parent="0VkmQVjvzOjDvfpLvTd2-1" vertex="1">
                    <mxGeometry x="200" y="120" width="40" height="40" as="geometry"/>
                </mxCell>
                <mxCell id="0VkmQVjvzOjDvfpLvTd2-15" value="" style="whiteSpace=wrap;html=1;aspect=fixed;fontFamily=Fira Code;" parent="0VkmQVjvzOjDvfpLvTd2-1" vertex="1">
                    <mxGeometry x="240" y="120" width="40" height="40" as="geometry"/>
                </mxCell>
            </root>
        </mxGraphModel>
    </diagram>
    <diagram name="Copy of Copy of Copy of Copy of Copy of Copy of Copy of Copy of Copy of Copy of Copy of Page-1" id="aOD4bZ3RgKz0m4fsCVIZ">
        <mxGraphModel dx="2202" dy="860" grid="1" gridSize="10" guides="1" tooltips="1" connect="1" arrows="1" fold="1" page="1" pageScale="1" pageWidth="800" pageHeight="800" math="0" shadow="0">
            <root>
                <mxCell id="2wf4Q-oZMAfs8__ZwYRI-0"/>
                <mxCell id="2wf4Q-oZMAfs8__ZwYRI-1" parent="2wf4Q-oZMAfs8__ZwYRI-0"/>
                <mxCell id="2wf4Q-oZMAfs8__ZwYRI-2" style="rounded=0;orthogonalLoop=1;jettySize=auto;html=1;exitX=0;exitY=1;exitDx=0;exitDy=0;entryX=0;entryY=0;entryDx=0;entryDy=0;endArrow=none;endFill=0;" parent="2wf4Q-oZMAfs8__ZwYRI-1" source="2wf4Q-oZMAfs8__ZwYRI-4" target="2wf4Q-oZMAfs8__ZwYRI-10" edge="1">
                    <mxGeometry relative="1" as="geometry"/>
                </mxCell>
                <mxCell id="2wf4Q-oZMAfs8__ZwYRI-3" style="edgeStyle=none;rounded=0;orthogonalLoop=1;jettySize=auto;html=1;exitX=1;exitY=1;exitDx=0;exitDy=0;entryX=0;entryY=0;entryDx=0;entryDy=0;endArrow=none;endFill=0;" parent="2wf4Q-oZMAfs8__ZwYRI-1" source="2wf4Q-oZMAfs8__ZwYRI-4" target="2wf4Q-oZMAfs8__ZwYRI-14" edge="1">
                    <mxGeometry relative="1" as="geometry"/>
                </mxCell>
                <mxCell id="2wf4Q-oZMAfs8__ZwYRI-4" value="35" style="whiteSpace=wrap;html=1;aspect=fixed;fontFamily=Fira Code;" parent="2wf4Q-oZMAfs8__ZwYRI-1" vertex="1">
                    <mxGeometry x="320" y="40" width="40" height="40" as="geometry"/>
                </mxCell>
                <mxCell id="2wf4Q-oZMAfs8__ZwYRI-5" value="" style="whiteSpace=wrap;html=1;aspect=fixed;fontFamily=Fira Code;" parent="2wf4Q-oZMAfs8__ZwYRI-1" vertex="1">
                    <mxGeometry x="360" y="40" width="40" height="40" as="geometry"/>
                </mxCell>
                <mxCell id="2wf4Q-oZMAfs8__ZwYRI-6" value="" style="whiteSpace=wrap;html=1;aspect=fixed;fontFamily=Fira Code;" parent="2wf4Q-oZMAfs8__ZwYRI-1" vertex="1">
                    <mxGeometry x="400" y="40" width="40" height="40" as="geometry"/>
                </mxCell>
                <mxCell id="2wf4Q-oZMAfs8__ZwYRI-7" value="" style="whiteSpace=wrap;html=1;aspect=fixed;fontFamily=Fira Code;" parent="2wf4Q-oZMAfs8__ZwYRI-1" vertex="1">
                    <mxGeometry x="440" y="40" width="40" height="40" as="geometry"/>
                </mxCell>
                <mxCell id="2wf4Q-oZMAfs8__ZwYRI-8" value="5" style="whiteSpace=wrap;html=1;aspect=fixed;fontFamily=Fira Code;" parent="2wf4Q-oZMAfs8__ZwYRI-1" vertex="1">
                    <mxGeometry x="-80" y="120" width="40" height="40" as="geometry"/>
                </mxCell>
                <mxCell id="2wf4Q-oZMAfs8__ZwYRI-9" value="10" style="whiteSpace=wrap;html=1;aspect=fixed;fontFamily=Fira Code;" parent="2wf4Q-oZMAfs8__ZwYRI-1" vertex="1">
                    <mxGeometry x="-40" y="120" width="40" height="40" as="geometry"/>
                </mxCell>
                <mxCell id="2wf4Q-oZMAfs8__ZwYRI-10" value="15" style="whiteSpace=wrap;html=1;aspect=fixed;fontFamily=Fira Code;" parent="2wf4Q-oZMAfs8__ZwYRI-1" vertex="1">
                    <mxGeometry y="120" width="40" height="40" as="geometry"/>
                </mxCell>
                <mxCell id="2wf4Q-oZMAfs8__ZwYRI-11" value="" style="whiteSpace=wrap;html=1;aspect=fixed;fontFamily=Fira Code;" parent="2wf4Q-oZMAfs8__ZwYRI-1" vertex="1">
                    <mxGeometry x="40" y="120" width="40" height="40" as="geometry"/>
                </mxCell>
                <mxCell id="2wf4Q-oZMAfs8__ZwYRI-12" value="40" style="whiteSpace=wrap;html=1;aspect=fixed;fontFamily=Fira Code;" parent="2wf4Q-oZMAfs8__ZwYRI-1" vertex="1">
                    <mxGeometry x="120" y="120" width="40" height="40" as="geometry"/>
                </mxCell>
                <mxCell id="2wf4Q-oZMAfs8__ZwYRI-13" value="50" style="whiteSpace=wrap;html=1;aspect=fixed;fontFamily=Fira Code;" parent="2wf4Q-oZMAfs8__ZwYRI-1" vertex="1">
                    <mxGeometry x="160" y="120" width="40" height="40" as="geometry"/>
                </mxCell>
                <mxCell id="2wf4Q-oZMAfs8__ZwYRI-14" value="65" style="whiteSpace=wrap;html=1;aspect=fixed;fontFamily=Fira Code;" parent="2wf4Q-oZMAfs8__ZwYRI-1" vertex="1">
                    <mxGeometry x="200" y="120" width="40" height="40" as="geometry"/>
                </mxCell>
                <mxCell id="2wf4Q-oZMAfs8__ZwYRI-15" value="95" style="whiteSpace=wrap;html=1;aspect=fixed;fontFamily=Fira Code;" parent="2wf4Q-oZMAfs8__ZwYRI-1" vertex="1">
                    <mxGeometry x="240" y="120" width="40" height="40" as="geometry"/>
                </mxCell>
            </root>
        </mxGraphModel>
    </diagram>
    <diagram name="Copy of Copy of Copy of Copy of Copy of Copy of Copy of Copy of Copy of Copy of Copy of Copy of Page-1" id="pBttRuHVzU3Dj4YNshLI">
        <mxGraphModel dx="2202" dy="860" grid="1" gridSize="10" guides="1" tooltips="1" connect="1" arrows="1" fold="1" page="1" pageScale="1" pageWidth="800" pageHeight="800" math="0" shadow="0">
            <root>
                <mxCell id="EcEKvpD02FmRGp0F3b7b-0"/>
                <mxCell id="EcEKvpD02FmRGp0F3b7b-1" parent="EcEKvpD02FmRGp0F3b7b-0"/>
                <mxCell id="EcEKvpD02FmRGp0F3b7b-2" style="rounded=0;orthogonalLoop=1;jettySize=auto;html=1;exitX=0;exitY=1;exitDx=0;exitDy=0;entryX=0;entryY=0;entryDx=0;entryDy=0;endArrow=none;endFill=0;" parent="EcEKvpD02FmRGp0F3b7b-1" source="EcEKvpD02FmRGp0F3b7b-4" target="EcEKvpD02FmRGp0F3b7b-10" edge="1">
                    <mxGeometry relative="1" as="geometry"/>
                </mxCell>
                <mxCell id="EcEKvpD02FmRGp0F3b7b-3" style="edgeStyle=none;rounded=0;orthogonalLoop=1;jettySize=auto;html=1;exitX=1;exitY=1;exitDx=0;exitDy=0;entryX=0;entryY=0;entryDx=0;entryDy=0;endArrow=none;endFill=0;" parent="EcEKvpD02FmRGp0F3b7b-1" source="EcEKvpD02FmRGp0F3b7b-4" target="EcEKvpD02FmRGp0F3b7b-14" edge="1">
                    <mxGeometry relative="1" as="geometry"/>
                </mxCell>
                <mxCell id="EcEKvpD02FmRGp0F3b7b-4" value="35" style="whiteSpace=wrap;html=1;aspect=fixed;fontFamily=Fira Code;" parent="EcEKvpD02FmRGp0F3b7b-1" vertex="1">
                    <mxGeometry x="320" y="40" width="40" height="40" as="geometry"/>
                </mxCell>
                <mxCell id="EcEKvpD02FmRGp0F3b7b-5" value="" style="whiteSpace=wrap;html=1;aspect=fixed;fontFamily=Fira Code;" parent="EcEKvpD02FmRGp0F3b7b-1" vertex="1">
                    <mxGeometry x="360" y="40" width="40" height="40" as="geometry"/>
                </mxCell>
                <mxCell id="EcEKvpD02FmRGp0F3b7b-6" value="" style="whiteSpace=wrap;html=1;aspect=fixed;fontFamily=Fira Code;" parent="EcEKvpD02FmRGp0F3b7b-1" vertex="1">
                    <mxGeometry x="400" y="40" width="40" height="40" as="geometry"/>
                </mxCell>
                <mxCell id="EcEKvpD02FmRGp0F3b7b-7" value="" style="whiteSpace=wrap;html=1;aspect=fixed;fontFamily=Fira Code;" parent="EcEKvpD02FmRGp0F3b7b-1" vertex="1">
                    <mxGeometry x="440" y="40" width="40" height="40" as="geometry"/>
                </mxCell>
                <mxCell id="EcEKvpD02FmRGp0F3b7b-8" value="5" style="whiteSpace=wrap;html=1;aspect=fixed;fontFamily=Fira Code;" parent="EcEKvpD02FmRGp0F3b7b-1" vertex="1">
                    <mxGeometry x="-80" y="120" width="40" height="40" as="geometry"/>
                </mxCell>
                <mxCell id="EcEKvpD02FmRGp0F3b7b-9" value="10" style="whiteSpace=wrap;html=1;aspect=fixed;fontFamily=Fira Code;" parent="EcEKvpD02FmRGp0F3b7b-1" vertex="1">
                    <mxGeometry x="-40" y="120" width="40" height="40" as="geometry"/>
                </mxCell>
                <mxCell id="EcEKvpD02FmRGp0F3b7b-10" value="15" style="whiteSpace=wrap;html=1;aspect=fixed;fontFamily=Fira Code;" parent="EcEKvpD02FmRGp0F3b7b-1" vertex="1">
                    <mxGeometry y="120" width="40" height="40" as="geometry"/>
                </mxCell>
                <mxCell id="EcEKvpD02FmRGp0F3b7b-11" value="20" style="whiteSpace=wrap;html=1;aspect=fixed;fontFamily=Fira Code;" parent="EcEKvpD02FmRGp0F3b7b-1" vertex="1">
                    <mxGeometry x="40" y="120" width="40" height="40" as="geometry"/>
                </mxCell>
                <mxCell id="EcEKvpD02FmRGp0F3b7b-12" value="40" style="whiteSpace=wrap;html=1;aspect=fixed;fontFamily=Fira Code;" parent="EcEKvpD02FmRGp0F3b7b-1" vertex="1">
                    <mxGeometry x="120" y="120" width="40" height="40" as="geometry"/>
                </mxCell>
                <mxCell id="EcEKvpD02FmRGp0F3b7b-13" value="50" style="whiteSpace=wrap;html=1;aspect=fixed;fontFamily=Fira Code;" parent="EcEKvpD02FmRGp0F3b7b-1" vertex="1">
                    <mxGeometry x="160" y="120" width="40" height="40" as="geometry"/>
                </mxCell>
                <mxCell id="EcEKvpD02FmRGp0F3b7b-14" value="65" style="whiteSpace=wrap;html=1;aspect=fixed;fontFamily=Fira Code;" parent="EcEKvpD02FmRGp0F3b7b-1" vertex="1">
                    <mxGeometry x="200" y="120" width="40" height="40" as="geometry"/>
                </mxCell>
                <mxCell id="EcEKvpD02FmRGp0F3b7b-15" value="95" style="whiteSpace=wrap;html=1;aspect=fixed;fontFamily=Fira Code;" parent="EcEKvpD02FmRGp0F3b7b-1" vertex="1">
                    <mxGeometry x="240" y="120" width="40" height="40" as="geometry"/>
                </mxCell>
            </root>
        </mxGraphModel>
    </diagram>
</mxfile>